<?xml version="1.0" encoding="UTF-8" standalone="no"?><!DOCTYPE svg PUBLIC "-//W3C//DTD SVG 1.1//EN" "http://www.w3.org/Graphics/SVG/1.1/DTD/svg11.dtd"><svg width="100%" height="100%" viewBox="0 0 24 24" version="1.1" xmlns="http://www.w3.org/2000/svg" xmlns:xlink="http://www.w3.org/1999/xlink" xml:space="preserve" xmlns:serif="http://www.serif.com/" style="fill-rule:evenodd;clip-rule:evenodd;stroke-linejoin:round;stroke-miterlimit:2;"><g id="Capa-1" serif:id="Capa 1"><path id="path6419" d="M11,3l0,3.156c-0.976,0.2 -1.889,0.586 -2.687,1.125l-0.032,0l-2.281,-2.281l-2,2l2.281,2.281c-0.005,0.01 0.005,0.024 0,0.031c-0.539,0.798 -0.925,1.711 -1.125,2.688l-2.156,-0l0,3l2.156,-0c0.2,0.976 0.586,1.889 1.125,2.687c0.005,0.01 -0.005,0.024 0,0.031l-2.281,2.282l2,2l2.281,-2.282c0.007,0.01 0.025,0 0.031,0c0.798,0.54 1.712,0.926 2.688,1.125l-0,3.157l3,-0l-0,-3.157c0.976,-0.199 1.889,-0.585 2.687,-1.125l0.032,0l2.281,2.282l2,-2l-2.281,-2.282l-0,-0.031c0.539,-0.798 0.925,-1.711 1.125,-2.687l2.156,-0l-0,-3l-2.156,-0c-0.2,-0.977 -0.586,-1.89 -1.125,-2.688l-0,-0.031l2.281,-2.281l-2,-2l-2.281,2.281l-0.032,0c-0.798,-0.539 -1.711,-0.925 -2.687,-1.125l-0,-3.156l-3,0l0,0Zm1.5,6c2.485,0 4.5,2.015 4.5,4.5c0,2.485 -2.015,4.5 -4.5,4.5c-2.485,0 -4.5,-2.015 -4.5,-4.5c0,-2.485 2.015,-4.5 4.5,-4.5Z" style="fill-opacity:0.6;fill-rule:nonzero;"/><path id="path5266" d="M11,2l-0,3.156c-0.976,0.2 -1.89,0.586 -2.688,1.125l-0.031,0l-2.281,-2.281l-2,2l2.281,2.281c-0.005,0.01 0.005,0.024 0,0.031c-0.539,0.798 -0.925,1.711 -1.125,2.688l-2.156,-0l0,3l2.156,-0c0.2,0.976 0.586,1.889 1.125,2.687c0.005,0.01 -0.005,0.024 0,0.031l-2.281,2.282l2,2l2.281,-2.282c0.007,0.01 0.025,0 0.031,0c0.798,0.54 1.711,0.926 2.688,1.125l-0,3.157l3,-0l-0,-3.157c0.976,-0.199 1.889,-0.585 2.687,-1.125l0.032,0l2.281,2.282l2,-2l-2.281,-2.282l-0,-0.031c0.539,-0.798 0.925,-1.711 1.125,-2.687l2.156,-0l-0,-3l-2.156,-0c-0.2,-0.977 -0.586,-1.89 -1.125,-2.688l-0,-0.031l2.281,-2.281l-2,-2l-2.281,2.281l-0.032,0c-0.798,-0.539 -1.711,-0.925 -2.687,-1.125l-0,-3.156l-3,0l-0,0Zm1.5,6c2.485,0 4.5,2.015 4.5,4.5c-0,2.485 -2.015,4.5 -4.5,4.5c-2.485,0 -4.5,-2.015 -4.5,-4.5c-0,-2.485 2.015,-4.5 4.5,-4.5Z" style="fill:#fff;fill-opacity:0.7;fill-rule:nonzero;"/></g></svg>