<?xml version="1.0" encoding="UTF-8" standalone="no"?><!DOCTYPE svg PUBLIC "-//W3C//DTD SVG 1.1//EN" "http://www.w3.org/Graphics/SVG/1.1/DTD/svg11.dtd"><svg width="100%" height="100%" viewBox="0 0 22 22" version="1.1" xmlns="http://www.w3.org/2000/svg" xmlns:xlink="http://www.w3.org/1999/xlink" xml:space="preserve" xmlns:serif="http://www.serif.com/" style="fill-rule:evenodd;clip-rule:evenodd;stroke-linejoin:round;stroke-miterlimit:2;"><g id="Capa-1" serif:id="Capa 1"><path id="path3248" d="M4,1l-2,2l0,13l3,3l3,-3l3,3l3,-3l3,3l3,-3l0,-13l-2,-2l-14,0Zm1,2l12,0l1,1l0,11l-1,1l-3,-3l-3,3l-3,-3l-3,3l-1,-1l0,-11l1,-1Z" style="fill-opacity:0.6;fill-rule:nonzero;"/><path id="path3196" d="M4,0l-2,2l0,13l3,3l3,-3l3,3l3,-3l3,3l3,-3l0,-13l-2,-2l-14,0Zm1,2l12,0l1,1l0,11l-1,1l-3,-3l-3,3l-3,-3l-3,3l-1,-1l0,-11l1,-1Z" style="fill:#fff;fill-opacity:0.7;fill-rule:nonzero;"/></g></svg>