<?xml version="1.0" encoding="UTF-8" standalone="no"?><!DOCTYPE svg PUBLIC "-//W3C//DTD SVG 1.1//EN" "http://www.w3.org/Graphics/SVG/1.1/DTD/svg11.dtd"><svg width="100%" height="100%" viewBox="0 0 22 22" version="1.1" xmlns="http://www.w3.org/2000/svg" xmlns:xlink="http://www.w3.org/1999/xlink" xml:space="preserve" xmlns:serif="http://www.serif.com/" style="fill-rule:evenodd;clip-rule:evenodd;stroke-linejoin:round;stroke-miterlimit:2;"><g id="Capa-1" serif:id="Capa 1"><path id="path820-9" d="M9.89,7.24c0.236,-0.234 0.276,-0.527 0.276,-0.816c0.001,-0.849 -0.803,-1.537 -1.796,-1.537c-0.993,-0 -1.797,0.688 -1.797,1.537c0,0.31 0.08,0.655 0.364,0.933c0.284,0.279 0.601,0.548 1.434,0.541c0.833,-0.01 1.282,-0.424 1.519,-0.658Zm-1.982,1.498c-0.579,-0.068 -1.297,-0.49 -1.708,-0.89l-1.586,-1.587l-1.291,1.291l1.869,1.868c-0.198,0.48 -0.336,1 -0.41,1.541l-2.21,-0l-0,1.825l2.206,-0c0.063,0.472 0.174,0.929 0.331,1.358l-1.789,1.79l1.292,1.291l1.446,-1.447c0.666,0.754 1.013,0.928 1.871,0.928l-0.021,-7.968Zm2.868,7.061l1.42,1.422l1.292,-1.292l-1.754,-1.755c0.158,-0.422 0.272,-0.872 0.338,-1.338l2.194,0l-0,-1.824l-2.184,-0c-0.076,-0.575 -0.224,-1.127 -0.438,-1.632l1.825,-1.825l-1.29,-1.29l-1.554,1.553c-0.61,0.568 -1.329,0.842 -1.809,0.91l-0.01,8c0.861,0.01 1.308,-0.188 1.97,-0.929Zm-9.743,-13.715l9.961,-0l9.96,8.743l0,1.458l-9.96,8.743l-9.961,0l0,-18.944Z" style="fill-opacity:0.6;fill-rule:nonzero;"/><path id="path820" d="M9.881,6.171c0.236,-0.234 0.276,-0.527 0.276,-0.816c0.001,-0.849 -0.803,-1.537 -1.796,-1.537c-0.993,0 -1.797,0.688 -1.797,1.537c0,0.31 0.08,0.655 0.364,0.933c0.284,0.279 0.601,0.548 1.434,0.541c0.833,-0.01 1.282,-0.424 1.519,-0.658Zm-1.982,1.498c-0.579,-0.068 -1.297,-0.49 -1.708,-0.89l-1.586,-1.587l-1.291,1.291l1.868,1.868c-0.197,0.48 -0.335,1.001 -0.409,1.541l-2.21,0l-0,1.825l2.206,-0c0.063,0.472 0.174,0.929 0.331,1.359l-1.789,1.789l1.292,1.291l1.446,-1.447c0.666,0.755 1.012,0.928 1.871,0.928l-0.021,-7.968Zm2.868,7.062l1.42,1.422l1.292,-1.293l-1.754,-1.754c0.158,-0.423 0.272,-0.873 0.338,-1.338l2.194,-0l-0,-1.825l-2.184,0c-0.076,-0.574 -0.224,-1.126 -0.438,-1.632l1.825,-1.825l-1.291,-1.29l-1.553,1.553c-0.61,0.569 -1.329,0.843 -1.809,0.91l-0.01,8.001c0.861,0.01 1.308,-0.189 1.97,-0.929Zm-9.743,-13.716l9.961,-0l9.96,8.744l0,1.457l-9.96,8.743l-9.961,0l0,-18.944Z" style="fill:#fff;fill-opacity:0.7;fill-rule:nonzero;"/></g></svg>