<?xml version="1.0" encoding="UTF-8" standalone="no"?><!DOCTYPE svg PUBLIC "-//W3C//DTD SVG 1.1//EN" "http://www.w3.org/Graphics/SVG/1.1/DTD/svg11.dtd"><svg width="100%" height="100%" viewBox="0 0 22 22" version="1.1" xmlns="http://www.w3.org/2000/svg" xmlns:xlink="http://www.w3.org/1999/xlink" xml:space="preserve" xmlns:serif="http://www.serif.com/" style="fill-rule:evenodd;clip-rule:evenodd;stroke-linejoin:round;stroke-miterlimit:2;"><g id="Capa-1" serif:id="Capa 1"><path id="path6315" d="M4,1.999l-2,2l0,11l2,2l11,0l5,5l2,-2l-5,-5l0,-10.5l-2.5,-2.5l-10.5,0Zm1,2l9,0l1,1l0,9l-1,1l-9,0l-1,-1l0,-9l1,-1Zm-1,15.001l-1,1l0,1l1,1l1,0l1,-1l0,-1l-1,-1l-1,0Zm4,-0.001l-1,1l0,1l1,1l1,0l1,-1l0,-1l-1,-1l-1,0Zm4,0.001l-1,1l0,1l1,1l1,0l1,-1l0,-1l-1,-1l-1,0Z" style="fill-opacity:0.6;fill-rule:nonzero;"/><path id="path4358" d="M4,0.999l-2,2l0,11l2,2l11,0l5,5l2,-2l-5,-5l0,-10.5l-2.5,-2.5l-10.5,0Zm1,2l9,0l1,1l0,9l-1,1l-9,0l-1,-1l0,-9l1,-1Zm-1,15.001l-1,1l0,1l1,1l1,0l1,-1l0,-1l-1,-1l-1,0Zm4,-0.001l-1,1l0,1l1,1l1,0l1,-1l0,-1l-1,-1l-1,0Zm4,0.001l-1,1l0,1l1,1l1,0l1,-1l0,-1l-1,-1l-1,0Z" style="fill:#fff;fill-opacity:0.7;fill-rule:nonzero;"/></g></svg>