<?xml version="1.0" encoding="UTF-8" standalone="no"?><!DOCTYPE svg PUBLIC "-//W3C//DTD SVG 1.1//EN" "http://www.w3.org/Graphics/SVG/1.1/DTD/svg11.dtd"><svg width="100%" height="100%" viewBox="0 0 22 22" version="1.1" xmlns="http://www.w3.org/2000/svg" xmlns:xlink="http://www.w3.org/1999/xlink" xml:space="preserve" xmlns:serif="http://www.serif.com/" style="fill-rule:evenodd;clip-rule:evenodd;stroke-linejoin:round;stroke-miterlimit:2;"><g id="Capa-1" serif:id="Capa 1"><g id="Layer-1" serif:id="Layer 1" opacity="0.6"><path id="path3393" d="M10,21l-8,-8l0,-2l7.875,-8l2.125,0l8,8l0,2l-8,8l-2,0Zm-0,-3l2,-0l0,-9l-2,-0l-0,9Zm-0,-10l2,-0l0,-2l-2,0l-0,2Z" style="fill-rule:nonzero;"/><g id="g3395"></g><g id="g3399"></g></g><g id="Layer-11" serif:id="Layer 1" opacity="0.7"><path id="path3737" d="M10,20l-8,-8l0,-2l7.875,-8l2.125,0l8,8l0,2l-8,8l-2,0Zm-0,-3l2,-0l0,-9l-2,-0l-0,9Zm-0,-10l2,-0l0,-2l-2,0l-0,2Z" style="fill:#fff;fill-rule:nonzero;"/><g id="layer13"></g><g id="layer13-8"></g></g></g></svg>