<?xml version="1.0" encoding="UTF-8" standalone="no"?><!DOCTYPE svg PUBLIC "-//W3C//DTD SVG 1.1//EN" "http://www.w3.org/Graphics/SVG/1.1/DTD/svg11.dtd"><svg width="100%" height="100%" viewBox="0 0 22 22" version="1.1" xmlns="http://www.w3.org/2000/svg" xmlns:xlink="http://www.w3.org/1999/xlink" xml:space="preserve" xmlns:serif="http://www.serif.com/" style="fill-rule:evenodd;clip-rule:evenodd;stroke-linejoin:round;stroke-miterlimit:2;"><g id="Capa-1" serif:id="Capa 1"><path id="path6484" d="M5.005,7l-5,5l5,5l3,0l-5,-5l5,-5l-3,0Zm9,0l5,5l-5,5l3,0l5,-5l-5,-5l-3,0Zm-8,4l-1,1l1,1l10,0l1,-1l-1,-1l-10,0Z" style="fill-opacity:0.6;fill-rule:nonzero;"/><path id="path6797" d="M5.006,6l-5.001,5l5.001,5l3,0l-5.001,-5l5.001,-5l-3,0Zm8.999,0l5.001,5l-5.001,5l3,0l5.001,-5l-5.001,-5l-3,0Zm-8,4l-0.999,1l0.999,1l10.001,0l0.999,-1l-0.999,-1l-10.001,0Z" style="fill:#fff;fill-opacity:0.7;fill-rule:nonzero;"/></g></svg>