<?xml version="1.0" encoding="UTF-8" standalone="no"?><!DOCTYPE svg PUBLIC "-//W3C//DTD SVG 1.1//EN" "http://www.w3.org/Graphics/SVG/1.1/DTD/svg11.dtd"><svg width="100%" height="100%" viewBox="0 0 22 22" version="1.1" xmlns="http://www.w3.org/2000/svg" xmlns:xlink="http://www.w3.org/1999/xlink" xml:space="preserve" xmlns:serif="http://www.serif.com/" style="fill-rule:evenodd;clip-rule:evenodd;stroke-linejoin:round;stroke-miterlimit:2;"><g id="Capa-1" serif:id="Capa 1"><path id="path3021" d="M5,21c-1.91,0 -4,-2.09 -4,-4l0,-11c0,-1.91 2.09,-4 4,-4l11,0c1.91,0 4,2.09 4,4l-2,0c0,-0.939 -1.061,-2 -2,-2l-11,0c-0.939,0 -2,1.061 -2,2l0,11c0,0.939 0.989,2 2,2l11,0c1.945,0 2,-2.067 2,-2l2,-2l0,2c0,2.001 -2.09,4 -4,4l-11,0Zm1,-3l-1,-1l0,-1l1,-1l6,0l1,1l0,1l-1,1l-6,0Zm10.469,-1c-0.72,0 -1.354,-0.651 -1.344,-1.375l-0,-4.375l-0.875,0.875c-0.506,0.508 -1.401,0.508 -1.906,0c-0.506,-0.508 -0.506,-1.46 -0,-1.969l3.156,-3.187l0.969,-0.969l0.968,0.969l3.188,3.187c0.433,0.572 0.506,1.461 0,1.969c-0.506,0.508 -1.432,0.508 -1.938,0l-0.843,-0.875l-0,4.375c0.01,0.724 -0.655,1.375 -1.375,1.375Zm-10.469,-4l-1,-1l-0,-1l1,-1l4,0l1,1l-0,1l-1,1l-4,0Zm-0,-5l-1,-1l-0,-1l1,-1l6,0l1,1l-0,1l-1,1l-6,0Z" style="fill-opacity:0.6;fill-rule:nonzero;"/><path id="path3003" d="M5.031,20c-1.91,0 -4,-2.09 -4,-4l0,-11c0,-1.91 2.09,-4 4,-4l11,0c1.91,0 4,2.09 4,4l-2,0c0,-0.939 -1.061,-2 -2,-2l-11,0c-0.939,0 -2,1.061 -2,2l0,11c0,0.939 0.989,2 2,2l11,0c1.945,0 2,-2.067 2,-2l2,-2l0,2c0,2.001 -2.09,4 -4,4l-11,0Zm1,-3l-1,-1l0,-1l1,-1l6,0l1,1l0,1l-1,1l-6,0Zm10.469,-1c-0.72,0 -1.354,-0.651 -1.344,-1.375l0,-4.375l-0.875,0.875c-0.505,0.508 -1.4,0.508 -1.906,0c-0.506,-0.508 -0.506,-1.46 0,-1.969l3.156,-3.187l0.969,-0.969l0.969,0.969l3.187,3.187c0.433,0.572 0.506,1.461 0,1.969c-0.505,0.508 -1.432,0.508 -1.937,0l-0.844,-0.875l0,4.375c0.01,0.724 -0.655,1.375 -1.375,1.375Zm-10.469,-4l-1,-1l0,-1l1,-1l4,0l1,1l0,1l-1,1l-4,0Zm0,-5l-1,-1l0,-1l1,-1l6,0l1,1l0,1l-1,1l-6,0Z" style="fill:#fff;fill-opacity:0.7;fill-rule:nonzero;"/></g></svg>