<?xml version="1.0" encoding="UTF-8" standalone="no"?><!DOCTYPE svg PUBLIC "-//W3C//DTD SVG 1.1//EN" "http://www.w3.org/Graphics/SVG/1.1/DTD/svg11.dtd"><svg width="100%" height="100%" viewBox="0 0 22 22" version="1.1" xmlns="http://www.w3.org/2000/svg" xmlns:xlink="http://www.w3.org/1999/xlink" xml:space="preserve" xmlns:serif="http://www.serif.com/" style="fill-rule:evenodd;clip-rule:evenodd;stroke-linejoin:round;stroke-miterlimit:2;"><g id="Capa-1" serif:id="Capa 1"><path id="path6613" d="M17,3l0,3l-3,0l0,2l3,0l0,3l2,0l0,-3l3,0l0,-2l-3,0l0,-3l-2,0Zm-13,4l-2,2l0,11l2,2l14,0l2,-2l0,-9l-2,2l0,7l-14,0l0,-11l6,0l2,2l4,0l-2,-2l-1,0l-2,-2l-7,0Z" style="fill-opacity:0.6;fill-rule:nonzero;"/><path id="path5959" d="M17,1.999l0,3l-3,0l0,2l3,0l0,3l2,0l0,-3l3,0l0,-2l-3,0l0,-3l-2,0Zm-13,4l-2,2l0,11l2,2l14,0l2,-2l0,-9l-2,2l0,7l-14,0l0,-11l6,0l2,2l4,0l-2,-2l-1,0l-2,-2l-7,0Z" style="fill:#fff;fill-opacity:0.7;fill-rule:nonzero;"/></g></svg>