<?xml version="1.0" encoding="UTF-8" standalone="no"?><!DOCTYPE svg PUBLIC "-//W3C//DTD SVG 1.1//EN" "http://www.w3.org/Graphics/SVG/1.1/DTD/svg11.dtd"><svg width="100%" height="100%" viewBox="0 0 24 24" version="1.1" xmlns="http://www.w3.org/2000/svg" xmlns:xlink="http://www.w3.org/1999/xlink" xml:space="preserve" xmlns:serif="http://www.serif.com/" style="fill-rule:evenodd;clip-rule:evenodd;stroke-linejoin:round;stroke-miterlimit:2;"><g id="Capa-1" serif:id="Capa 1"><path id="path3118" d="M9,2l-1,1l0,1l-3,0l-2,2l0,15l2,2l14,0l2,-2l0,-15l-2,-2l-3,0l0,-1l-1,-1l-6,0Zm-3,4l2,0l1,1l6,0l1,-1l2,0l1,1l0,13l-1,1l-12,0l-1,-1l0,-13l1,-1Zm1,3l0,2l10,0l0,-2l-10,0Zm0,4l0,2l10,0l0,-2l-10,0Zm0,4l0,2l10,0l0,-2l-10,0Z" style="fill-opacity:0.6;fill-rule:nonzero;"/><path id="path3095" d="M9,1l-1,1l0,1l-3,0l-2,2l0,15l2,2l14,0l2,-2l0,-15l-2,-2l-3,0l0,-1l-1,-1l-6,0Zm-3,4l2,0l1,1l6,0l1,-1l2,0l1,1l0,13l-1,1l-12,0l-1,-1l0,-13l1,-1Zm1,3l0,2l10,0l0,-2l-10,0Zm0,4l0,2l10,0l0,-2l-10,0Zm0,4l0,2l10,0l0,-2l-10,0Z" style="fill:#fff;fill-opacity:0.7;"/></g></svg>