<?xml version="1.0" encoding="UTF-8" standalone="no"?>
<!DOCTYPE svg PUBLIC "-//W3C//DTD SVG 1.1//EN" "http://www.w3.org/Graphics/SVG/1.1/DTD/svg11.dtd">
<svg width="100%" height="100%" viewBox="0 0 22 22" version="1.1" xmlns="http://www.w3.org/2000/svg" xmlns:xlink="http://www.w3.org/1999/xlink" xml:space="preserve" xmlns:serif="http://www.serif.com/" style="fill-rule:evenodd;clip-rule:evenodd;stroke-linejoin:round;stroke-miterlimit:2;">
    <g id="Capa-1" serif:id="Capa 1" transform="matrix(1,0,0,1,0,-1030.36)">
        <path id="path3103" d="M5,1032.36L2,1035.36L2,1049.36L5,1052.36L17,1052.36L20,1049.36L20,1035.36L17,1032.36L5,1032.36ZM6,1034.36L16,1034.36L18,1036.36L18,1048.36L16,1050.36L6,1050.36L4,1048.36L4,1036.36L6,1034.36ZM11,1036.36L10,1037.36L10,1038.36L9,1039.36L8,1038.36L7,1038.36L7,1039.36L8,1040.36L7,1041.36L6,1041.36L5,1042.36L6,1043.36L7,1043.36L8,1044.36L7,1045.36L7,1046.36L8,1046.36L9,1045.36L10,1046.36L10,1047.36L11,1048.36L12,1047.36L12,1046.36L13,1045.36L14,1046.36L15,1046.36L15,1045.36L14,1044.36L15,1043.36L16,1043.36L17,1042.36L16,1041.36L15,1041.36L14,1040.36L15,1039.36L15,1038.36L14,1038.36L13,1039.36L12,1038.36L12,1037.36L11,1036.36ZM10,1040.36L12,1040.36L13,1041.36L13,1043.36L12,1044.36L10,1044.36L9,1043.36L9,1041.36L10,1040.36Z" style="fill:white;fill-opacity:0.6;fill-rule:nonzero;"/>
        <clipPath id="_clip1">
            <path id="path3082" d="M5,1031.36L2,1034.36L2,1048.36L5,1051.36L17,1051.36L20,1048.36L20,1034.36L17,1031.36L5,1031.36ZM6,1033.36L16,1033.36L18,1035.36L18,1047.36L16,1049.36L6,1049.36L4,1047.36L4,1035.36L6,1033.36ZM11,1035.36L10,1036.36L10,1037.36L9,1038.36L8,1037.36L7,1037.36L7,1038.36L8,1039.36L7,1040.36L6,1040.36L5,1041.36L6,1042.36L7,1042.36L8,1043.36L7,1044.36L7,1045.36L8,1045.36L9,1044.36L10,1045.36L10,1046.36L11,1047.36L12,1046.36L12,1045.36L13,1044.36L14,1045.36L15,1045.36L15,1044.36L14,1043.36L15,1042.36L16,1042.36L17,1041.36L16,1040.36L15,1040.36L14,1039.36L15,1038.36L15,1037.36L14,1037.36L13,1038.36L12,1037.36L12,1036.36L11,1035.36ZM10,1039.36L12,1039.36L13,1040.36L13,1042.36L12,1043.36L10,1043.36L9,1042.36L9,1040.36L10,1039.36Z" clip-rule="nonzero"/>
        </clipPath>
        <g clip-path="url(#_clip1)">
            <g opacity="0.7">
                <path d="M5,1031.36L2,1034.36L2,1048.36L5,1051.36L17,1051.36L20,1048.36L20,1034.36L17,1031.36L5,1031.36ZM6,1033.36L16,1033.36L18,1035.36L18,1047.36L16,1049.36L6,1049.36L4,1047.36L4,1035.36L6,1033.36ZM11,1035.36L10,1036.36L10,1037.36L9,1038.36L8,1037.36L7,1037.36L7,1038.36L8,1039.36L7,1040.36L6,1040.36L5,1041.36L6,1042.36L7,1042.36L8,1043.36L7,1044.36L7,1045.36L8,1045.36L9,1044.36L10,1045.36L10,1046.36L11,1047.36L12,1046.36L12,1045.36L13,1044.36L14,1045.36L15,1045.36L15,1044.36L14,1043.36L15,1042.36L16,1042.36L17,1041.36L16,1040.36L15,1040.36L14,1039.36L15,1038.36L15,1037.36L14,1037.36L13,1038.36L12,1037.36L12,1036.36L11,1035.36ZM10,1039.36L12,1039.36L13,1040.36L13,1042.36L12,1043.36L10,1043.36L9,1042.36L9,1040.36L10,1039.36Z" style="fill-rule:nonzero;"/>
                <clipPath id="_clip2">
                    <path d="M5,1031.36L2,1034.36L2,1048.36L5,1051.36L17,1051.36L20,1048.36L20,1034.36L17,1031.36L5,1031.36ZM6,1033.36L16,1033.36L18,1035.36L18,1047.36L16,1049.36L6,1049.36L4,1047.36L4,1035.36L6,1033.36ZM11,1035.36L10,1036.36L10,1037.36L9,1038.36L8,1037.36L7,1037.36L7,1038.36L8,1039.36L7,1040.36L6,1040.36L5,1041.36L6,1042.36L7,1042.36L8,1043.36L7,1044.36L7,1045.36L8,1045.36L9,1044.36L10,1045.36L10,1046.36L11,1047.36L12,1046.36L12,1045.36L13,1044.36L14,1045.36L15,1045.36L15,1044.36L14,1043.36L15,1042.36L16,1042.36L17,1041.36L16,1040.36L15,1040.36L14,1039.36L15,1038.36L15,1037.36L14,1037.36L13,1038.36L12,1037.36L12,1036.36L11,1035.36ZM10,1039.36L12,1039.36L13,1040.36L13,1042.36L12,1043.36L10,1043.36L9,1042.36L9,1040.36L10,1039.36Z" clip-rule="nonzero"/>
                </clipPath>
                <g clip-path="url(#_clip2)">
                    <g transform="matrix(1,0,0,1,0,1030.36)">
                        <path d="M5,1L17,1L20,4L20,18L17,21L5,21L2,18L2,4L5,1ZM6,3L4,5L4,17L6,19L16,19L18,17L18,5L16,3L6,3Z" style="fill:white;"/>
                    </g>
                    <g transform="matrix(1,0,0,1,0,1030.36)">
                        <path d="M11,5L12,6L12,7L13,8L14,7L15,7L15,8L14,9L15,10L16,10L17,11L16,12L15,12L14,13L15,14L15,15L14,15L13,14L12,15L12,16L11,17L10,16L10,15L9,14L8,15L7,15L7,14L8,13L7,12L6,12L5,11L6,10L7,10L8,9L7,8L7,7L8,7L9,8L10,7L10,6L11,5ZM10,9L9,10L9,12L10,13L12,13L13,12L13,10L12,9L10,9Z" style="fill:white;"/>
                    </g>
                </g>
            </g>
        </g>
    </g>
</svg>
