<?xml version="1.0" encoding="UTF-8" standalone="no"?><!DOCTYPE svg PUBLIC "-//W3C//DTD SVG 1.1//EN" "http://www.w3.org/Graphics/SVG/1.1/DTD/svg11.dtd"><svg width="100%" height="100%" viewBox="0 0 22 22" version="1.1" xmlns="http://www.w3.org/2000/svg" xmlns:xlink="http://www.w3.org/1999/xlink" xml:space="preserve" xmlns:serif="http://www.serif.com/" style="fill-rule:evenodd;clip-rule:evenodd;stroke-linejoin:round;stroke-miterlimit:2;"><g id="Capa-1" serif:id="Capa 1"><path id="path3049" d="M14,5l3,3l-3,3l2,0l3,-3l-3,-3l-2,0Zm-8,2l-3,3l0,4l2,-2l0,-1l2,-2l8,0l1,-1l-1,-1l-9,0Zm13,3l-2,2l0,1l-2,2l-8,0l-1,1l1,1l9,0l3,-3l0,-4Zm-13,3l-3,3l3,3l2,0l-3,-3l3,-3l-2,0Z" style="fill-opacity:0.6;fill-rule:nonzero;"/><path id="path3031" d="M14,4l3,3l-3,3l2,0l3,-3l-3,-3l-2,0Zm-8,2l-3,3l0,4l2,-2l0,-1l2,-2l8,0l1,-1l-1,-1l-9,0Zm13,3l-2,2l0,1l-2,2l-8,0l-1,1l1,1l9,0l3,-3l0,-4Zm-13,3l-3,3l3,3l2,0l-3,-3l3,-3l-2,0Z" style="fill:#fff;fill-opacity:0.7;fill-rule:nonzero;"/></g></svg>