<?xml version="1.0" encoding="UTF-8" standalone="no"?><!DOCTYPE svg PUBLIC "-//W3C//DTD SVG 1.1//EN" "http://www.w3.org/Graphics/SVG/1.1/DTD/svg11.dtd"><svg width="100%" height="100%" viewBox="0 0 22 22" version="1.1" xmlns="http://www.w3.org/2000/svg" xmlns:xlink="http://www.w3.org/1999/xlink" xml:space="preserve" xmlns:serif="http://www.serif.com/" style="fill-rule:evenodd;clip-rule:evenodd;stroke-linejoin:round;stroke-miterlimit:2;"><g id="Capa-1" serif:id="Capa 1"><g id="dialog-no"><path id="path2992" d="M5,6l-0,2l4,4l-4,4l-0,2l2,0l4,-4l4,4l2,0l0,-2l-4,-4l4,-4l0,-2l-2,0l-4,3.999l-4,-3.999l-2,0Z" style="fill-opacity:0.6;fill-rule:nonzero;"/><path id="path6913" d="M5,5l0,2l4,4l-4,4l0,2l2,0l4,-4l4,4l2,0l0,-2l-4,-4l4,-4l0,-2l-2,0l-4,3.999l-4,-3.999l-2,0Z" style="fill:#fff;fill-opacity:0.7;fill-rule:nonzero;"/></g></g></svg>