<?xml version="1.0" encoding="UTF-8" standalone="no"?><!DOCTYPE svg PUBLIC "-//W3C//DTD SVG 1.1//EN" "http://www.w3.org/Graphics/SVG/1.1/DTD/svg11.dtd"><svg width="100%" height="100%" viewBox="0 0 22 22" version="1.1" xmlns="http://www.w3.org/2000/svg" xmlns:xlink="http://www.w3.org/1999/xlink" xml:space="preserve" xmlns:serif="http://www.serif.com/" style="fill-rule:evenodd;clip-rule:evenodd;stroke-linejoin:round;stroke-miterlimit:2;"><g id="Capa-1" serif:id="Capa 1"><path id="path3110" d="M9.843,3.616l-1.728,0.277l0,10.553c0.342,0.105 0.783,0.223 1.296,0.309c0.523,0.086 1.065,0.123 1.635,0.123c0.59,-0 1.108,-0.097 1.574,-0.278c0.466,-0.18 0.88,-0.46 1.203,-0.802c0.333,-0.342 0.57,-0.728 0.741,-1.203c0.18,-0.485 0.278,-1.037 0.278,-1.636c-0,-0.58 -0.064,-1.098 -0.216,-1.573c-0.143,-0.485 -0.373,-0.892 -0.648,-1.235c-0.276,-0.342 -0.6,-0.621 -1.019,-0.802c-0.409,-0.19 -0.896,-0.277 -1.419,-0.277c-0.352,-0 -0.662,0.037 -0.957,0.123c-0.285,0.086 -0.54,0.173 -0.74,0.278l-0,-3.857Zm-6.85,3.425c-0.475,-0 -0.908,0.047 -1.327,0.123c-0.418,0.076 -0.738,0.14 -0.956,0.216l0.216,1.389c0.209,-0.076 0.469,-0.128 0.802,-0.186c0.333,-0.057 0.711,-0.093 1.111,-0.093c0.294,0 0.519,0.047 0.709,0.124c0.2,0.076 0.38,0.166 0.494,0.308c0.124,0.134 0.199,0.314 0.247,0.494c0.047,0.181 0.062,0.356 0.062,0.556l-0,0.277c-0.238,-0.057 -0.439,-0.074 -0.648,-0.093c-0.21,-0.029 -0.427,-0.061 -0.617,-0.061c-0.409,0 -0.793,0.037 -1.173,0.124c-0.371,0.076 -0.702,0.211 -0.987,0.401c-0.286,0.18 -0.508,0.415 -0.679,0.71c-0.162,0.294 -0.247,0.683 -0.247,1.11c-0,0.447 0.073,0.807 0.216,1.111c0.152,0.304 0.36,0.551 0.617,0.741c0.266,0.19 0.586,0.346 0.957,0.432c0.37,0.086 0.756,0.123 1.203,0.123c0.675,0 1.288,-0.037 1.82,-0.123c0.542,-0.076 0.938,-0.159 1.204,-0.216l-0,-4.505c-0,-0.438 -0.05,-0.842 -0.154,-1.204c-0.096,-0.37 -0.256,-0.699 -0.494,-0.956c-0.228,-0.257 -0.536,-0.444 -0.926,-0.586c-0.39,-0.143 -0.88,-0.216 -1.45,-0.216l-0,-0Zm16.909,-0c-0.571,-0 -1.087,0.109 -1.543,0.308c-0.456,0.2 -0.849,0.451 -1.172,0.803c-0.314,0.351 -0.539,0.78 -0.71,1.265c-0.171,0.475 -0.278,0.991 -0.278,1.542c0,0.561 0.095,1.089 0.247,1.574c0.152,0.475 0.375,0.882 0.679,1.234c0.314,0.343 0.706,0.603 1.172,0.802c0.476,0.191 1.03,0.309 1.667,0.309c0.408,0 0.792,-0.047 1.172,-0.123c0.39,-0.076 0.674,-0.152 0.864,-0.247l-0.216,-1.45c-0.209,0.086 -0.455,0.158 -0.741,0.216c-0.285,0.057 -0.6,0.093 -0.894,0.093c-0.789,-0 -1.334,-0.221 -1.667,-0.648c-0.332,-0.438 -0.493,-1.018 -0.493,-1.759c-0,-0.77 0.173,-1.371 0.524,-1.79c0.352,-0.428 0.868,-0.648 1.543,-0.648c0.285,0 0.555,0.036 0.802,0.093c0.257,0.057 0.479,0.13 0.679,0.216l0.37,-1.419c-0.627,-0.257 -1.302,-0.371 -2.005,-0.371l-0,-0Zm-8.64,1.512c0.628,-0 1.073,0.22 1.358,0.648c0.295,0.427 0.463,0.995 0.463,1.727c-0,0.761 -0.194,1.353 -0.556,1.79c-0.361,0.428 -0.844,0.648 -1.481,0.648c-0.275,0 -0.51,-0.012 -0.709,-0.031c-0.191,-0.029 -0.37,-0.064 -0.494,-0.093l-0,-4.289c0.152,-0.104 0.37,-0.192 0.617,-0.277c0.257,-0.086 0.517,-0.124 0.802,-0.124l0,0.001Zm-7.93,2.807c0.219,0 0.437,0 0.618,0.031c0.18,0.029 0.306,0.064 0.401,0.093l-0,1.913c-0.276,0.057 -0.671,0.061 -1.204,0.061c-0.437,0 -0.792,-0.064 -1.049,-0.215c-0.257,-0.162 -0.37,-0.456 -0.37,-0.864c-0,-0.21 0.028,-0.361 0.123,-0.494c0.095,-0.143 0.218,-0.264 0.371,-0.34c0.161,-0.076 0.334,-0.125 0.524,-0.154c0.2,-0.029 0.396,-0.031 0.586,-0.031l0,0Zm-1.357,4.691l-1.975,1.974l-0,1.975l1.975,-1.975l1.975,1.975l1.974,-1.975l1.975,1.975l1.975,-1.975l1.975,1.975l1.974,-1.975l1.975,1.975l1.975,-1.975l1.975,1.975l1.974,-1.975l0,-1.974l-1.974,1.974l-1.975,-1.974l-1.975,1.974l-1.975,-1.974l-1.974,1.974l-1.975,-1.974l-1.975,1.974l-1.975,-1.974l-1.974,1.974l-1.975,-1.974Z" style="fill-opacity:0.6;fill-rule:nonzero;"/><path id="path3056" d="M9.843,2.615l-1.728,0.278l0,10.553c0.342,0.104 0.783,0.222 1.296,0.308c0.523,0.086 1.065,0.124 1.635,0.124c0.59,-0 1.108,-0.097 1.574,-0.278c0.466,-0.181 0.88,-0.46 1.203,-0.802c0.333,-0.343 0.57,-0.728 0.741,-1.204c0.18,-0.485 0.278,-1.036 0.278,-1.635c-0,-0.58 -0.064,-1.098 -0.216,-1.574c-0.143,-0.485 -0.373,-0.892 -0.648,-1.234c-0.276,-0.342 -0.6,-0.622 -1.019,-0.802c-0.409,-0.191 -0.896,-0.278 -1.419,-0.278c-0.352,0 -0.662,0.038 -0.957,0.124c-0.285,0.086 -0.54,0.173 -0.74,0.277l-0,-3.857Zm-6.85,3.425c-0.475,0 -0.908,0.047 -1.327,0.124c-0.418,0.076 -0.738,0.14 -0.956,0.216l0.216,1.388c0.209,-0.076 0.469,-0.128 0.802,-0.185c0.333,-0.057 0.711,-0.093 1.111,-0.093c0.294,0 0.519,0.047 0.709,0.124c0.2,0.076 0.38,0.165 0.494,0.308c0.124,0.133 0.199,0.313 0.247,0.494c0.047,0.18 0.062,0.356 0.062,0.555l-0,0.278c-0.238,-0.057 -0.439,-0.074 -0.648,-0.093c-0.21,-0.029 -0.427,-0.061 -0.617,-0.061c-0.409,-0 -0.793,0.037 -1.173,0.123c-0.371,0.076 -0.702,0.211 -0.987,0.401c-0.286,0.181 -0.508,0.415 -0.679,0.71c-0.162,0.295 -0.247,0.683 -0.247,1.111c-0,0.447 0.073,0.806 0.216,1.111c0.152,0.304 0.36,0.55 0.617,0.74c0.266,0.19 0.586,0.346 0.957,0.432c0.37,0.086 0.756,0.124 1.203,0.124c0.675,-0 1.288,-0.038 1.82,-0.124c0.542,-0.076 0.938,-0.158 1.204,-0.216l-0,-4.505c-0,-0.437 -0.05,-0.842 -0.154,-1.203c-0.096,-0.371 -0.256,-0.7 -0.494,-0.957c-0.228,-0.256 -0.536,-0.443 -0.926,-0.586c-0.39,-0.143 -0.88,-0.216 -1.45,-0.216l-0,0Zm16.909,0c-0.571,0 -1.087,0.109 -1.543,0.309c-0.456,0.2 -0.849,0.45 -1.172,0.802c-0.314,0.352 -0.539,0.78 -0.71,1.265c-0.171,0.476 -0.278,0.992 -0.278,1.543c0,0.561 0.095,1.089 0.247,1.574c0.152,0.475 0.375,0.882 0.679,1.234c0.314,0.342 0.706,0.602 1.172,0.802c0.476,0.191 1.03,0.309 1.667,0.309c0.408,-0 0.792,-0.047 1.172,-0.124c0.39,-0.076 0.674,-0.152 0.864,-0.247l-0.216,-1.45c-0.209,0.086 -0.455,0.159 -0.741,0.216c-0.285,0.057 -0.6,0.093 -0.894,0.093c-0.789,0 -1.334,-0.22 -1.667,-0.648c-0.332,-0.437 -0.493,-1.017 -0.493,-1.759c-0,-0.77 0.173,-1.371 0.524,-1.789c0.352,-0.428 0.868,-0.648 1.543,-0.648c0.285,-0 0.555,0.036 0.802,0.093c0.257,0.057 0.479,0.13 0.679,0.216l0.37,-1.42c-0.627,-0.256 -1.302,-0.37 -2.005,-0.37l-0,-0.001Zm-8.64,1.512c0.628,0 1.073,0.22 1.358,0.648c0.295,0.428 0.463,0.996 0.463,1.728c-0,0.761 -0.194,1.352 -0.556,1.79c-0.361,0.427 -0.844,0.648 -1.481,0.648c-0.275,-0 -0.51,-0.012 -0.709,-0.031c-0.191,-0.029 -0.37,-0.064 -0.494,-0.093l-0,-4.289c0.152,-0.105 0.37,-0.192 0.617,-0.278c0.257,-0.086 0.517,-0.123 0.802,-0.123l0,0Zm-7.93,2.808c0.219,-0 0.437,-0 0.618,0.031c0.18,0.029 0.306,0.064 0.401,0.093l-0,1.913c-0.276,0.057 -0.671,0.061 -1.204,0.061c-0.437,-0 -0.792,-0.064 -1.049,-0.216c-0.257,-0.161 -0.37,-0.455 -0.37,-0.864c-0,-0.209 0.028,-0.361 0.123,-0.494c0.095,-0.142 0.218,-0.263 0.371,-0.339c0.161,-0.076 0.334,-0.126 0.524,-0.154c0.2,-0.029 0.396,-0.031 0.586,-0.031l0,-0Zm-1.357,4.69l-1.975,1.975l-0,1.975l1.975,-1.975l1.975,1.975l1.974,-1.975l1.975,1.975l1.975,-1.975l1.975,1.975l1.974,-1.975l1.975,1.975l1.975,-1.975l1.975,1.975l1.974,-1.975l0,-1.975l-1.974,1.975l-1.975,-1.975l-1.975,1.975l-1.975,-1.975l-1.974,1.975l-1.975,-1.975l-1.975,1.975l-1.975,-1.975l-1.974,1.975l-1.975,-1.975Z" style="fill:#fff;fill-opacity:0.75;fill-rule:nonzero;"/></g></svg>