<?xml version="1.0" encoding="UTF-8" standalone="no"?><!DOCTYPE svg PUBLIC "-//W3C//DTD SVG 1.1//EN" "http://www.w3.org/Graphics/SVG/1.1/DTD/svg11.dtd"><svg width="100%" height="100%" viewBox="0 0 22 22" version="1.1" xmlns="http://www.w3.org/2000/svg" xmlns:xlink="http://www.w3.org/1999/xlink" xml:space="preserve" xmlns:serif="http://www.serif.com/" style="fill-rule:evenodd;clip-rule:evenodd;stroke-linejoin:round;stroke-miterlimit:2;"><g id="Capa-1" serif:id="Capa 1"><path id="path6427" d="M12.015,3.001l4,4l-4,4l3,0l4,-4l-4.031,-4l-2.969,0Zm-5,3l-4,4l0,7l4,4l8,0l4,-4l0,-4l-5,5l-6,0l-2,-2l0,-5l2,-2l5,0l2,-2l-1,-1l-7,0Z" style="fill-opacity:0.6;fill-rule:nonzero;"/><path id="path5831-1-6" d="M12.015,2.001l4,4l-4,4l3,0l4,-4l-4.031,-4l-2.969,0Zm-5,3l-4,4l0,7l4,4l8,0l4,-4l0,-4l-5,5l-6,0l-2,-2l0,-5l2,-2l5,0l2,-2l-1,-1l-7,0Z" style="fill:#fff;fill-opacity:0.7;fill-rule:nonzero;"/></g></svg>