<?xml version="1.0" encoding="UTF-8" standalone="no"?><!DOCTYPE svg PUBLIC "-//W3C//DTD SVG 1.1//EN" "http://www.w3.org/Graphics/SVG/1.1/DTD/svg11.dtd"><svg width="100%" height="100%" viewBox="0 0 22 22" version="1.1" xmlns="http://www.w3.org/2000/svg" xmlns:xlink="http://www.w3.org/1999/xlink" xml:space="preserve" xmlns:serif="http://www.serif.com/" style="fill-rule:evenodd;clip-rule:evenodd;stroke-linejoin:round;stroke-miterlimit:2;"><g id="Capa-1" serif:id="Capa 1"><path id="path6533" d="M14,5.999l6,6l-6,6l-4,-0l6,-6l-6,-6l4,-0Zm-2,4.001l2,1.999l-2,2.001l-6,-0l-4,3.999l0,-3.999l4,-4l6,-0Z" style="fill-opacity:0.6;fill-rule:nonzero;"/><path id="path6478" d="M14,4.999l6,6l-6,6l-4,-0l6,-6l-6,-6l4,-0Zm-2,4.001l2,1.999l-2,2.001l-6,0l-4,3.999l0,-3.999l4,-4l6,0Z" style="fill:#fff;fill-opacity:0.7;fill-rule:nonzero;"/></g></svg>