<?xml version="1.0" encoding="UTF-8" standalone="no"?><!DOCTYPE svg PUBLIC "-//W3C//DTD SVG 1.1//EN" "http://www.w3.org/Graphics/SVG/1.1/DTD/svg11.dtd"><svg width="100%" height="100%" viewBox="0 0 22 22" version="1.1" xmlns="http://www.w3.org/2000/svg" xmlns:xlink="http://www.w3.org/1999/xlink" xml:space="preserve" xmlns:serif="http://www.serif.com/" style="fill-rule:evenodd;clip-rule:evenodd;stroke-linejoin:round;stroke-miterlimit:2;"><g id="Capa-1" serif:id="Capa 1"><path id="path3022" d="M2,3l-2,2l0,14l2,2l18,0l2,-2l0,-14l-2,-2l-18,0Zm0,2l18,0l0,14l-18,0l0,-14Zm13,1c-1.657,0 -3,1.343 -3,3c0,1.657 1.343,3 3,3c1.657,0 3,-1.343 3,-3c0,-1.657 -1.343,-3 -3,-3Zm-8,4l-4,4l0,4l16,0l0,-2l-4,-3l-3,2l-5,-5Z" style="fill-opacity:0.6;fill-rule:nonzero;"/><path id="path3009" d="M2,2l-2,2l0,14l2,2l18,0l2,-2l0,-14l-2,-2l-18,0Zm0,2l18,0l0,14l-18,0l0,-14Zm13,1c-1.657,0 -3,1.343 -3,3c0,1.657 1.343,3 3,3c1.657,0 3,-1.343 3,-3c0,-1.657 -1.343,-3 -3,-3Zm-8,4l-4,4l0,4l16,0l0,-2l-4,-3l-3,2l-5,-5Z" style="fill:#fff;fill-opacity:0.66;fill-rule:nonzero;"/></g></svg>