<?xml version="1.0" encoding="UTF-8" standalone="no"?><!DOCTYPE svg PUBLIC "-//W3C//DTD SVG 1.1//EN" "http://www.w3.org/Graphics/SVG/1.1/DTD/svg11.dtd"><svg width="100%" height="100%" viewBox="0 0 22 22" version="1.1" xmlns="http://www.w3.org/2000/svg" xmlns:xlink="http://www.w3.org/1999/xlink" xml:space="preserve" xmlns:serif="http://www.serif.com/" style="fill-rule:evenodd;clip-rule:evenodd;stroke-linejoin:round;stroke-miterlimit:2;"><g id="Capa-1" serif:id="Capa 1"><path id="path3069" d="M7,2l4,4l4,-4l-8,0Zm-3,5l-2,2l0,11l2,2l14,0l2,-2l0,-9l-2,-2l-5,0l-2,-2l-7,0Zm0,2l6,0l2,2l6,0l0,9l-14,0l0,-11Zm3,5l-1,1l0,1l1,1l1,0l1,-1l0,-1l-1,-1l-1,0Zm4,0l-1,1l0,1l1,1l1,0l1,-1l0,-1l-1,-1l-1,0Zm4,0l-1,1l0,1l1,1l1,0l1,-1l0,-1l-1,-1l-1,0Z" style="fill-opacity:0.6;fill-rule:nonzero;"/><path id="path3001" d="M7,1l4,4l4,-4l-8,0Zm-3,5l-2,2l0,11l2,2l14,0l2,-2l0,-9l-2,-2l-5,0l-2,-2l-7,0Zm0,2l6,0l2,2l6,0l0,9l-14,0l0,-11Zm3,5l-1,1l0,1l1,1l1,0l1,-1l0,-1l-1,-1l-1,0Zm4,0l-1,1l0,1l1,1l1,0l1,-1l0,-1l-1,-1l-1,0Zm4,0l-1,1l0,1l1,1l1,0l1,-1l0,-1l-1,-1l-1,0Z" style="fill:#fff;fill-opacity:0.7;fill-rule:nonzero;"/></g></svg>