<?xml version="1.0" encoding="UTF-8" standalone="no"?><!DOCTYPE svg PUBLIC "-//W3C//DTD SVG 1.1//EN" "http://www.w3.org/Graphics/SVG/1.1/DTD/svg11.dtd"><svg width="100%" height="100%" viewBox="0 0 22 22" version="1.1" xmlns="http://www.w3.org/2000/svg" xmlns:xlink="http://www.w3.org/1999/xlink" xml:space="preserve" xmlns:serif="http://www.serif.com/" style="fill-rule:evenodd;clip-rule:evenodd;stroke-linejoin:round;stroke-miterlimit:2;"><g id="Capa-1" serif:id="Capa 1"><path id="path3043" d="M5,2l-2,2l0,10l2,2l5,0l0,3l-8,0l-1,1l1,1l18,0l1,-1l-1,-1l-8,0l0,-3l5,0l2,-2l0,-10l-2,-2l-12,0Zm1,2l10,0l1,1l0,7l-1,1l-10,0l-1,-1l0,-7l1,-1Zm8,10l2,0l0,1l-2,0l0,-1Z" style="fill-opacity:0.6;fill-rule:nonzero;"/><path id="path2996" d="M5,1l-2,2l0,10l2,2l5,0l0,3l-8,0l-1,1l1,1l18,0l1,-1l-1,-1l-8,0l0,-3l5,0l2,-2l0,-10l-2,-2l-12,0Zm1,2l10,0l1,1l0,7l-1,1l-10,0l-1,-1l0,-7l1,-1Zm8,10l2,0l0,1l-2,0l0,-1Z" style="fill:#fff;fill-opacity:0.7;fill-rule:nonzero;"/></g></svg>