<?xml version="1.0" encoding="UTF-8" standalone="no"?><!DOCTYPE svg PUBLIC "-//W3C//DTD SVG 1.1//EN" "http://www.w3.org/Graphics/SVG/1.1/DTD/svg11.dtd"><svg width="100%" height="100%" viewBox="0 0 22 22" version="1.1" xmlns="http://www.w3.org/2000/svg" xmlns:xlink="http://www.w3.org/1999/xlink" xml:space="preserve" xmlns:serif="http://www.serif.com/" style="fill-rule:evenodd;clip-rule:evenodd;stroke-linejoin:round;stroke-miterlimit:2;"><g id="Capa-1" serif:id="Capa 1"><path id="path845-3" d="M16.124,22.939c0.721,0 1.354,-0.65 1.344,-1.375l0,-4.375l0.875,0.875c0.506,0.509 1.401,0.509 1.906,0c0.506,-0.508 0.506,-1.46 0,-1.968l-3.156,-3.188l-0.969,-0.969l-0.968,0.969l-3.188,3.188c-0.433,0.571 -0.505,1.46 0,1.968c0.506,0.509 1.432,0.509 1.938,0l0.843,-0.875l0,4.375c-0.01,0.725 0.655,1.375 1.375,1.375Zm-12.397,-20.959l-0.682,1.068l0,2.139l-0.92,-0c-0.592,-0 -1.07,0.478 -1.07,1.07l0,7.483c0,0.592 0.478,1.07 1.07,1.07l0.918,-0l0.002,2.139l0.682,1.068l1.068,-0l0.643,-1.084l-0,-2.139l2.953,0.016l-0,2.139l0.682,1.068l1.07,0l0.643,-1.084l-0,-2.138l1.197,0.01l1.898,-2.041l-10.857,-0l-0,-5.563l13.125,0l-0,3.178l0.945,1.015l1.067,1.159l-0,-6.293c-0,-0.593 -0.477,-1.07 -1.069,-1.071l-0.963,-0.016l0,-2.138l-0.642,-1.053l-1.069,-0l-0.683,1.068l-0,2.139l-2.949,-0.016l-0,-2.139l-0.643,-1.052l-1.07,-0l-0.682,1.068l-0,2.139l-2.953,-0.016l-0,-2.139l-0.643,-1.053l-1.068,-0.001Z" style="fill-opacity:0.6;fill-rule:nonzero;"/><path id="path845" d="M16.101,21.96c0.72,-0 1.354,-0.651 1.343,-1.375l0,-4.375l0.875,0.875c0.506,0.508 1.401,0.508 1.907,-0c0.505,-0.509 0.505,-1.461 -0,-1.969l-3.157,-3.188l-0.968,-0.968l-0.969,0.968l-3.188,3.188c-0.433,0.571 -0.505,1.46 0,1.969c0.506,0.508 1.432,0.508 1.938,-0l0.844,-0.875l-0,4.375c-0.01,0.724 0.654,1.375 1.375,1.375Zm-12.398,-20.96l-0.682,1.068l0,2.139l-0.919,-0c-0.593,0 -1.071,0.478 -1.071,1.07l0,7.483c0,0.592 0.478,1.07 1.071,1.07l0.918,0l0.001,2.139l0.682,1.068l1.068,0l0.643,-1.084l0,-2.139l2.953,0.017l0,2.138l0.682,1.068l1.07,0l0.643,-1.084l-0,-2.138l1.197,0.01l1.898,-2.041l-10.857,-0l0,-5.563l13.125,0l0,3.178l0.945,1.016l1.067,1.158l-0,-6.293c-0,-0.592 -0.476,-1.07 -1.069,-1.07l-0.963,-0.016l0,-2.139l-0.642,-1.053l-1.068,0l-0.684,1.069l-0,2.138l-2.949,-0.016l-0,-2.139l-0.643,-1.052l-1.07,-0l-0.682,1.068l0,2.139l-2.953,-0.016l0,-2.139l-0.643,-1.053l-1.068,-0.001Z" style="fill:#fff;fill-opacity:0.7;fill-rule:nonzero;"/></g></svg>