<?xml version="1.0" encoding="UTF-8" standalone="no"?><!DOCTYPE svg PUBLIC "-//W3C//DTD SVG 1.1//EN" "http://www.w3.org/Graphics/SVG/1.1/DTD/svg11.dtd"><svg width="100%" height="100%" viewBox="0 0 22 22" version="1.1" xmlns="http://www.w3.org/2000/svg" xmlns:xlink="http://www.w3.org/1999/xlink" xml:space="preserve" xmlns:serif="http://www.serif.com/" style="fill-rule:evenodd;clip-rule:evenodd;stroke-linejoin:round;stroke-miterlimit:2;"><g id="Capa-1" serif:id="Capa 1"><path id="path862-3" d="M6.144,11.744l0.002,-1.446l1.527,-0.01l3.274,3.24l7.492,-7.367l1.521,0l-0,1.624l-8.323,8.002l-1.417,-0l-4.076,-4.043Zm-1.175,9.25c-1.903,-0 -3.985,-2.09 -3.985,-4l-0,-11c-0,-1.91 2.082,-4 3.985,-4l10.959,-0c1.405,-0 2.561,0.67 3.068,1.555c-0.645,0.619 -0.741,0.703 -1.485,1.37c-0.048,-0.276 -0.648,-0.925 -1.583,-0.925l-10.959,-0c-0.936,-0 -1.993,1.061 -1.993,2l0,11c0,0.939 0.986,2 1.993,2l10.959,-0c1.346,-0 1.974,-1.213 1.983,-2.015c0.004,-0.632 0.02,-3.841 0.009,-4.486l1.993,-2l-0,6.501c-0,2.001 -2.082,4 -3.985,4l-10.959,-0Z" style="fill-opacity:0.6;fill-rule:nonzero;"/><path id="path862" d="M6.192,10.75l0.001,-1.446l1.527,-0.01l3.275,3.24l7.492,-7.366l1.52,-0.001l0,1.624l-8.322,8.002l-1.418,0l-4.075,-4.043Zm-1.176,9.25c-1.903,0 -3.985,-2.09 -3.985,-4l0,-11c0,-1.91 2.082,-4 3.985,-4l10.959,0c1.405,0 2.561,0.67 3.068,1.555c-0.645,0.619 -0.74,0.703 -1.485,1.37c-0.048,-0.276 -0.647,-0.925 -1.583,-0.925l-10.959,-0c-0.935,-0 -1.992,1.061 -1.992,2l-0,11c-0,0.939 0.985,2 1.992,2l10.959,-0c1.347,-0 1.974,-1.213 1.984,-2.015c0.003,-0.631 0.02,-3.841 0.009,-4.486l1.992,-2l0,6.501c0,2.001 -2.082,4 -3.985,4l-10.959,0Z" style="fill:#fff;fill-opacity:0.7;fill-rule:nonzero;"/></g></svg>