<?xml version="1.0" encoding="UTF-8" standalone="no"?><!DOCTYPE svg PUBLIC "-//W3C//DTD SVG 1.1//EN" "http://www.w3.org/Graphics/SVG/1.1/DTD/svg11.dtd"><svg width="100%" height="100%" viewBox="0 0 22 22" version="1.1" xmlns="http://www.w3.org/2000/svg" xmlns:xlink="http://www.w3.org/1999/xlink" xml:space="preserve" xmlns:serif="http://www.serif.com/" style="fill-rule:evenodd;clip-rule:evenodd;stroke-linejoin:round;stroke-miterlimit:2;"><g id="Capa-1" serif:id="Capa 1"><path id="path6476" d="M11.007,1l-5,5l-0,3l5,-5l5,5l-0,-3l-5,-5Zm-0.008,4.999l-0.992,1.001l-0,10l1,1l1,-1l-0,-10l-1.008,-1.001Zm-4.992,9.001l-0,3l5,5l5,-5l-0,-3l-5,5l-5,-5Z" style="fill-opacity:0.6;fill-rule:nonzero;"/><path id="path6851" d="M11.007,0l-5,5l-0,3l5,-5l5,5l-0,-3l-5,-5Zm-0.008,4.999l-0.992,1.001l-0,10l1,1l1,-1l-0,-10l-1.008,-1.001Zm-4.992,9.001l-0,3l5,5l5,-5l-0,-3l-5,5l-5,-5Z" style="fill:#fff;fill-opacity:0.7;fill-rule:nonzero;"/></g></svg>