<?xml version="1.0" encoding="UTF-8" standalone="no"?><!DOCTYPE svg PUBLIC "-//W3C//DTD SVG 1.1//EN" "http://www.w3.org/Graphics/SVG/1.1/DTD/svg11.dtd"><svg width="100%" height="100%" viewBox="0 0 22 22" version="1.1" xmlns="http://www.w3.org/2000/svg" xmlns:xlink="http://www.w3.org/1999/xlink" xml:space="preserve" xmlns:serif="http://www.serif.com/" style="fill-rule:evenodd;clip-rule:evenodd;stroke-linejoin:round;stroke-miterlimit:2;"><g id="Capa-1" serif:id="Capa 1"><g id="text1040-9" opacity="0.6"><path id="path1062-9" d="M7.316,6.781c0.195,-0.085 0.395,-0.19 0.601,-0.314c0.216,-0.124 0.422,-0.256 0.617,-0.395c0.195,-0.148 0.375,-0.295 0.54,-0.442c0.174,-0.155 0.318,-0.307 0.431,-0.454l1.018,-0l0,8.061l-1.326,-0l-0,-6.307c-0.175,0.139 -0.38,0.271 -0.617,0.395c-0.226,0.124 -0.725,0.349 -0.725,0.349l-0.539,-0.893Z" style="fill-rule:nonzero;"/></g><path id="path6323" d="M4,2l-2,2l0,11l2,2l11,0l5,5l2,-2l-5,-5l0,-10.5l-2.5,-2.5l-10.5,0Zm1,2l9,0l1,1l0,9l-1,1l-9,0l-1,-1l0,-9l1,-1Z" style="fill-opacity:0.6;fill-rule:nonzero;"/><path id="rect4518" d="M4,1l-2,2l0,11l2,2l11,0l5,5l2,-2l-5,-5l0,-10.5l-2.5,-2.5l-10.5,0Zm1,2l9,0l1,1l0,9l-1,1l-9,0l-1,-1l0,-9l1,-1Z" style="fill:#fff;fill-opacity:0.7;fill-rule:nonzero;"/><g id="text1040" opacity="0.7"><path id="path1062" d="M7.317,5.931c0.195,-0.086 0.396,-0.19 0.601,-0.314c0.216,-0.124 0.422,-0.256 0.617,-0.396c0.195,-0.147 0.375,-0.294 0.54,-0.442c0.175,-0.155 0.318,-0.306 0.432,-0.453l1.017,-0l0,8.06l-1.326,0l0,-6.307c-0.175,0.14 -0.38,0.272 -0.617,0.396c-0.226,0.124 -0.724,0.349 -0.724,0.349l-0.54,-0.893Z" style="fill:#fff;fill-rule:nonzero;"/></g></g></svg>