<?xml version="1.0" encoding="UTF-8" standalone="no"?><!DOCTYPE svg PUBLIC "-//W3C//DTD SVG 1.1//EN" "http://www.w3.org/Graphics/SVG/1.1/DTD/svg11.dtd"><svg width="100%" height="100%" viewBox="0 0 22 22" version="1.1" xmlns="http://www.w3.org/2000/svg" xmlns:xlink="http://www.w3.org/1999/xlink" xml:space="preserve" xmlns:serif="http://www.serif.com/" style="fill-rule:evenodd;clip-rule:evenodd;stroke-linejoin:round;stroke-miterlimit:2;"><g id="Capa-1" serif:id="Capa 1"><path id="path885-7" d="M11,5l3,0l0,3l-3,-3Z" style="fill-opacity:0.6;fill-rule:nonzero;"/><path id="path885-8-5" d="M5,8l0,-3l3,0l-3,3Z" style="fill-opacity:0.6;fill-rule:nonzero;"/><path id="path885-5-3" d="M8,14l-3,0l0,-3l3,3Z" style="fill-opacity:0.6;fill-rule:nonzero;"/><path id="path885-9-8" d="M14,11l0,3l-3,0l3,-3Z" style="fill-opacity:0.6;fill-rule:nonzero;"/><rect id="rect826-6" x="7" y="7" width="5" height="5" style="fill-opacity:0.6;"/><path id="path6323" d="M4,2l-2,2l0,11l2,2l11,0l5,5l2,-2l-5,-5l0,-10.5l-2.5,-2.5l-10.5,0Zm1,2l9,0l1,1l0,9l-1,1l-9,0l-1,-1l0,-9l1,-1Z" style="fill-opacity:0.6;fill-rule:nonzero;"/><path id="rect4518" d="M4,1l-2,2l0,11l2,2l11,0l5,5l2,-2l-5,-5l0,-10.5l-2.5,-2.5l-10.5,0Zm1,2l9,0l1,1l0,9l-1,1l-9,0l-1,-1l0,-9l1,-1Z" style="fill:#fff;fill-opacity:0.7;fill-rule:nonzero;"/><rect id="rect826" x="7" y="6" width="5" height="5" style="fill:#fff;fill-opacity:0.7;"/><path id="path885" d="M11,4l3,0l0,3l-3,-3Z" style="fill:#fff;fill-opacity:0.7;fill-rule:nonzero;"/><path id="path885-8" d="M5,7l0,-3l3,0l-3,3Z" style="fill:#fff;fill-opacity:0.7;fill-rule:nonzero;"/><path id="path885-5" d="M8,13l-3,0l0,-3l3,3Z" style="fill:#fff;fill-opacity:0.7;fill-rule:nonzero;"/><path id="path885-9" d="M14,10l0,3l-3,0l3,-3Z" style="fill:#fff;fill-opacity:0.7;fill-rule:nonzero;"/></g></svg>